# xmcd
#
# Track frame offsets:
#	150
#	17948
#	33193
#	50381
#	65235
#	80159
#	98016
#	114151
#	131108
#	149072
#	167618
#	187542
#	204040
#	218864
#
# Disc length: 3137 seconds
#
# Revision: 0
# Processed by: cddbd v1.5.1PL0 Copyright (c) Steve Scherf et al.
# Submitted via: EasyCDDAExtractor 8.0.2.1
#
DISCID=c00c3f0e
DTITLE=Cheek - K‰‰nn‰n sivuu
DYEAR=2005
DGENRE=Hip-Hop
TTITLE0=Taas askeleen edell‰
TTITLE1=Nostan Kytkint‰
TTITLE2=Leija kaupungin yll‰
TTITLE3=Liiku feat. Jonna
TTITLE4=Valmis
TTITLE5=T‰‰lt‰ sinne
TTITLE6=Omenavarkaat feat. Herrasmiesliiga
TTITLE7=Her‰tys
TTITLE8=Kun s‰ nukut
TTITLE9=K‰‰nn‰n sivuu
TTITLE10=Reissumies feat. Aspekti
TTITLE11=Lyijykyn‰
TTITLE12=Tappiin asti
TTITLE13=Tuuaa kuumaa 2005 feat. Herrasmiesliiga
EXTD=
EXTT0=
EXTT1=
EXTT2=
EXTT3=
EXTT4=
EXTT5=
EXTT6=
EXTT7=
EXTT8=
EXTT9=
EXTT10=
EXTT11=
EXTT12=
EXTT13=
PLAYORDER=
